<svg width="12" height="9" viewBox="0 0 12 9" fill="none" xmlns="http://www.w3.org/2000/svg">
<path d="M10.334 0H1.66601C0.745945 0 0 0.745945 0 1.66601V7.15001C0 8.07007 0.745945 8.81602 1.66601 8.81602H10.334C11.254 8.81602 12 8.07007 12 7.15001V1.66601C12 0.745945 11.254 0 10.334 0ZM4.17577 5.94832L1.8428 7.93863C1.67824 8.07907 1.43086 8.05955 1.29045 7.89483C1.15001 7.73027 1.16953 7.48289 1.33427 7.34248L3.66724 5.35216C3.83177 5.21173 4.07913 5.23125 4.21957 5.39599C4.36001 5.56052 4.34048 5.80791 4.17577 5.94832ZM6 5.19166C5.68795 5.19089 5.38547 5.0872 5.14898 4.88269L5.14917 4.88287L5.14842 4.88231C5.14861 4.8825 5.14882 4.8825 5.14898 4.88269L1.56942 1.77584C1.40583 1.63385 1.38841 1.38649 1.53019 1.22311C1.67215 1.05952 1.91953 1.0421 2.08289 1.18387L5.66346 4.2915C5.73998 4.35961 5.86608 4.40878 6 4.40801C6.13373 4.40841 6.2577 4.36057 6.33844 4.29016L6.34017 4.28864L9.91709 1.1839C10.0805 1.04212 10.3279 1.05954 10.4698 1.22313C10.6116 1.38649 10.5942 1.63388 10.4306 1.77586L6.85003 4.88365C6.61432 5.08603 6.31223 5.19127 6 5.19166ZM10.7097 7.89483C10.5693 8.05955 10.3219 8.07907 10.1574 7.93863L7.82442 5.94832C7.6597 5.80788 7.64018 5.56052 7.78062 5.39599C7.92103 5.23125 8.16841 5.21175 8.33294 5.35216L10.6659 7.34248C10.8306 7.48289 10.8502 7.73027 10.7097 7.89483Z" fill="white"/>
</svg>
